<?xml version="1.0" encoding="UTF-8"?>
<svg width="24px" height="24px" viewBox="0 0 24 24" version="1.1" xmlns="http://www.w3.org/2000/svg" xmlns:xlink="http://www.w3.org/1999/xlink">
    <title>chat-bubble-icon</title>
    <g id="3rd-party-login" stroke="none" stroke-width="1" fill="none" fill-rule="evenodd">
        <g id="Sign-up-form---after-removal" transform="translate(-128.000000, -561.000000)" fill="#2E89CB">
            <path d="M148.946107,567.216813 C150.825868,568.831421 152,571.102818 152,573.635199 C152,576.142418 150.836883,578.467287 148.862708,580.12463 L148.621937,580.320276 L148.535276,580.385949 L148.536475,585 L144.200257,582.326689 L144.138634,582.340116 C143.728179,582.418668 143.311318,582.47408 142.889872,582.505841 L142.466965,582.5297 L142.041407,582.537678 C139.602521,582.537678 137.359678,581.752727 135.622483,580.444385 C136.724828,580.551346 137.87291,580.494208 139.025336,580.263812 C139.9573,580.581611 140.974437,580.757182 142.041407,580.757182 C142.621875,580.757182 143.193963,580.705089 143.75141,580.602858 L144.166652,580.516814 L144.504828,580.438578 L146.804212,581.855748 L146.803369,579.456018 L147.184274,579.191159 C149.127297,577.8401 150.268071,575.812102 150.268071,573.635199 C150.268071,572.269509 149.819809,570.987018 149.040988,569.896903 C149.132616,569.055233 149.113389,568.211622 148.976211,567.386204 L148.946107,567.216813 Z M137.958593,561 C143.431489,561 147.917186,564.952701 147.917186,569.902478 C147.917186,574.852256 143.431489,578.804957 137.958593,578.804957 C137.247344,578.804957 136.545458,578.738315 135.861366,578.607395 L135.796,578.593 L131.463525,581.267279 L131.463858,576.653228 L131.378063,576.587555 C129.415516,575.04412 128.191664,572.863985 128.020664,570.480091 L128.004796,570.181075 L128,569.902478 C128,564.952701 132.485697,561 137.958593,561 Z M137.958593,562.780496 C133.388049,562.780496 129.731929,566.002191 129.731929,569.902478 C129.731929,571.992305 130.783267,573.944901 132.586436,575.293096 L132.815726,575.458438 L133.196631,575.723297 L133.194922,578.123027 L135.495172,576.705857 L135.833348,576.784093 C136.520516,576.943066 137.233008,577.024461 137.958593,577.024461 C142.529137,577.024461 146.185257,573.802766 146.185257,569.902478 C146.185257,566.002191 142.529137,562.780496 137.958593,562.780496 Z M133.62877,568.121983 C134.346159,568.121983 134.927717,568.719849 134.927717,569.457354 C134.927717,570.19486 134.346159,570.792726 133.62877,570.792726 C132.911381,570.792726 132.329823,570.19486 132.329823,569.457354 C132.329823,568.719849 132.911381,568.121983 133.62877,568.121983 Z M137.958593,568.121983 C138.675982,568.121983 139.25754,568.719849 139.25754,569.457354 C139.25754,570.19486 138.675982,570.792726 137.958593,570.792726 C137.241205,570.792726 136.659646,570.19486 136.659646,569.457354 C136.659646,568.719849 137.241205,568.121983 137.958593,568.121983 Z M142.288416,568.121983 C143.005805,568.121983 143.587363,568.719849 143.587363,569.457354 C143.587363,570.19486 143.005805,570.792726 142.288416,570.792726 C141.571028,570.792726 140.989469,570.19486 140.989469,569.457354 C140.989469,568.719849 141.571028,568.121983 142.288416,568.121983 Z" id="chat-bubble-icon"></path>
        </g>
    </g>
</svg>
